<mxfile host="app.diagrams.net" modified="2022-11-27T19:26:21.948Z" agent="5.0 (Windows NT 10.0; Win64; x64) AppleWebKit/537.36 (KHTML, like Gecko) Chrome/107.0.0.0 Safari/537.36" version="20.6.0" etag="jES2D9BtPMUuudwoIB25" type="github">
  <diagram id="_3gb-5Cmcm2AI3gUoHVo" name="Page-1">
    <mxGraphModel dx="6570" dy="1216" grid="1" gridSize="10" guides="1" tooltips="1" connect="1" arrows="1" fold="1" page="1" pageScale="1" pageWidth="850" pageHeight="1100" math="0" shadow="0">
      <root>
        <mxCell id="0" />
        <mxCell id="1" parent="0" />
        <mxCell id="4QAoWMW5s6YIsWgxjIas-85" style="edgeStyle=orthogonalEdgeStyle;rounded=1;sketch=1;orthogonalLoop=1;jettySize=auto;html=1;exitX=0.5;exitY=0;exitDx=0;exitDy=0;exitPerimeter=0;entryX=0;entryY=0.75;entryDx=0;entryDy=0;shadow=1;strokeWidth=6;fontFamily=Tahoma;fontSize=26;fontColor=#000000;endArrow=classic;endFill=1;" edge="1" parent="1" source="4QAoWMW5s6YIsWgxjIas-1" target="4QAoWMW5s6YIsWgxjIas-32">
          <mxGeometry relative="1" as="geometry" />
        </mxCell>
        <mxCell id="4QAoWMW5s6YIsWgxjIas-1" value="" style="shape=cylinder3;whiteSpace=wrap;html=1;boundedLbl=1;backgroundOutline=1;size=15;" vertex="1" parent="1">
          <mxGeometry x="1001.25" y="580" width="250" height="240" as="geometry" />
        </mxCell>
        <mxCell id="4QAoWMW5s6YIsWgxjIas-105" style="edgeStyle=orthogonalEdgeStyle;rounded=1;sketch=1;orthogonalLoop=1;jettySize=auto;html=1;entryX=0;entryY=0.5;entryDx=0;entryDy=0;shadow=1;strokeWidth=6;fontFamily=Tahoma;fontSize=36;fontColor=#000000;endArrow=classic;endFill=1;" edge="1" parent="1" target="4QAoWMW5s6YIsWgxjIas-3">
          <mxGeometry relative="1" as="geometry">
            <mxPoint x="120" y="260" as="sourcePoint" />
          </mxGeometry>
        </mxCell>
        <mxCell id="4QAoWMW5s6YIsWgxjIas-107" style="edgeStyle=orthogonalEdgeStyle;rounded=1;sketch=1;orthogonalLoop=1;jettySize=auto;html=1;exitX=0.004;exitY=0.4;exitDx=0;exitDy=0;entryX=1.063;entryY=0.395;entryDx=0;entryDy=0;entryPerimeter=0;shadow=1;strokeWidth=6;fontFamily=Tahoma;fontSize=36;fontColor=#000000;endArrow=classic;endFill=1;exitPerimeter=0;" edge="1" parent="1" source="4QAoWMW5s6YIsWgxjIas-3" target="4QAoWMW5s6YIsWgxjIas-98">
          <mxGeometry relative="1" as="geometry" />
        </mxCell>
        <mxCell id="4QAoWMW5s6YIsWgxjIas-3" value="" style="rounded=1;whiteSpace=wrap;html=1;arcSize=0;" vertex="1" parent="1">
          <mxGeometry x="410" y="60" width="345.01" height="400" as="geometry" />
        </mxCell>
        <mxCell id="4QAoWMW5s6YIsWgxjIas-6" value="" style="sketch=0;aspect=fixed;pointerEvents=1;shadow=0;dashed=0;html=1;strokeColor=none;labelPosition=center;verticalLabelPosition=bottom;verticalAlign=top;align=center;shape=mxgraph.azure.computer;" vertex="1" parent="1">
          <mxGeometry x="541.11" y="130" width="77.78" height="70" as="geometry" />
        </mxCell>
        <mxCell id="4QAoWMW5s6YIsWgxjIas-8" value="&lt;h2 style=&quot;&quot;&gt;&lt;font face=&quot;Courier New&quot; style=&quot;font-size: 35px;&quot;&gt;FRONTEND&lt;/font&gt;&lt;/h2&gt;" style="rounded=1;whiteSpace=wrap;html=1;shadow=0;sketch=0;fontSize=25;arcSize=0;fillColor=#1ba1e2;fontColor=#ffffff;strokeColor=#006EAF;" vertex="1" parent="1">
          <mxGeometry x="410" y="60" width="345.01" height="60" as="geometry" />
        </mxCell>
        <mxCell id="4QAoWMW5s6YIsWgxjIas-15" value="What the user sees and interacts" style="text;strokeColor=none;fillColor=none;align=center;verticalAlign=middle;spacingLeft=4;spacingRight=4;overflow=hidden;points=[[0,0.5],[1,0.5]];portConstraint=eastwest;rotatable=0;shadow=0;labelBackgroundColor=none;sketch=0;fontFamily=Courier New;fontSize=17;fontStyle=1;labelBorderColor=none;whiteSpace=wrap;html=1;horizontal=1;" vertex="1" parent="1">
          <mxGeometry x="475" y="240" width="220" height="45" as="geometry" />
        </mxCell>
        <mxCell id="4QAoWMW5s6YIsWgxjIas-26" value="- JavaScript , CSS , HTML" style="text;html=1;strokeColor=none;fillColor=none;align=center;verticalAlign=middle;whiteSpace=wrap;rounded=0;labelBackgroundColor=none;labelBorderColor=none;fontStyle=0;fontSize=19;" vertex="1" parent="1">
          <mxGeometry x="447.5" y="305" width="265.01" height="30" as="geometry" />
        </mxCell>
        <mxCell id="4QAoWMW5s6YIsWgxjIas-31" value="&lt;b&gt;&lt;font style=&quot;font-size: 19px;&quot;&gt;Pathfinding Visualizer&lt;/font&gt;&lt;/b&gt;" style="rounded=1;whiteSpace=wrap;html=1;labelBackgroundColor=none;labelBorderColor=none;fontFamily=Helvetica;fontSize=16;fillColor=none;arcSize=0;fontColor=default;strokeWidth=0;" vertex="1" parent="1">
          <mxGeometry x="427.49" y="360" width="295.01" height="60" as="geometry" />
        </mxCell>
        <mxCell id="4QAoWMW5s6YIsWgxjIas-88" style="edgeStyle=orthogonalEdgeStyle;rounded=1;sketch=1;orthogonalLoop=1;jettySize=auto;html=1;exitX=-0.004;exitY=0.894;exitDx=0;exitDy=0;entryX=0.855;entryY=0;entryDx=0;entryDy=4.35;entryPerimeter=0;shadow=1;strokeWidth=6;fontFamily=Tahoma;fontSize=26;fontColor=#000000;endArrow=classic;endFill=1;exitPerimeter=0;" edge="1" parent="1" source="4QAoWMW5s6YIsWgxjIas-32" target="4QAoWMW5s6YIsWgxjIas-1">
          <mxGeometry relative="1" as="geometry">
            <Array as="points">
              <mxPoint x="1215" y="380" />
            </Array>
          </mxGeometry>
        </mxCell>
        <mxCell id="4QAoWMW5s6YIsWgxjIas-96" style="edgeStyle=orthogonalEdgeStyle;rounded=1;sketch=1;orthogonalLoop=1;jettySize=auto;html=1;exitX=0.59;exitY=1.006;exitDx=0;exitDy=0;entryX=0.633;entryY=-0.029;entryDx=0;entryDy=0;shadow=1;strokeWidth=6;fontFamily=Tahoma;fontSize=36;fontColor=#000000;endArrow=classic;endFill=1;entryPerimeter=0;exitPerimeter=0;" edge="1" parent="1" source="4QAoWMW5s6YIsWgxjIas-32" target="4QAoWMW5s6YIsWgxjIas-45">
          <mxGeometry relative="1" as="geometry" />
        </mxCell>
        <mxCell id="4QAoWMW5s6YIsWgxjIas-32" value="" style="rounded=1;whiteSpace=wrap;html=1;labelBackgroundColor=none;labelBorderColor=none;fontFamily=Helvetica;fontSize=16;fillColor=none;arcSize=0;" vertex="1" parent="1">
          <mxGeometry x="1370" y="60" width="457.49" height="360" as="geometry" />
        </mxCell>
        <mxCell id="4QAoWMW5s6YIsWgxjIas-33" value="&lt;font face=&quot;Courier New&quot; size=&quot;1&quot;&gt;&lt;b style=&quot;font-size: 38px;&quot;&gt;Web Server&lt;/b&gt;&lt;/font&gt;" style="rounded=0;whiteSpace=wrap;html=1;labelBackgroundColor=none;labelBorderColor=none;fontFamily=Helvetica;fontSize=16;fillColor=#1ba1e2;fontColor=#ffffff;strokeColor=#006EAF;" vertex="1" parent="1">
          <mxGeometry x="1370" y="60" width="457.49" height="60" as="geometry" />
        </mxCell>
        <mxCell id="4QAoWMW5s6YIsWgxjIas-37" value="" style="sketch=0;outlineConnect=0;fontColor=#232F3E;gradientColor=none;fillColor=#3F8624;strokeColor=none;dashed=0;verticalLabelPosition=bottom;verticalAlign=top;align=center;html=1;fontSize=12;fontStyle=0;aspect=fixed;pointerEvents=1;shape=mxgraph.aws4.file_system;rounded=1;labelBackgroundColor=none;labelBorderColor=none;fontFamily=Courier New;" vertex="1" parent="1">
          <mxGeometry x="1553.75" y="685" width="64.11" height="60" as="geometry" />
        </mxCell>
        <mxCell id="4QAoWMW5s6YIsWgxjIas-43" value="" style="rounded=0;whiteSpace=wrap;html=1;labelBackgroundColor=none;labelBorderColor=none;strokeWidth=1;fontFamily=Courier New;fontSize=27;fontColor=default;fillColor=none;" vertex="1" parent="1">
          <mxGeometry x="1403.74" y="600" width="370" height="230" as="geometry" />
        </mxCell>
        <mxCell id="4QAoWMW5s6YIsWgxjIas-89" style="edgeStyle=orthogonalEdgeStyle;rounded=1;sketch=1;orthogonalLoop=1;jettySize=auto;html=1;exitX=0.826;exitY=-0.01;exitDx=0;exitDy=0;entryX=0.75;entryY=1;entryDx=0;entryDy=0;shadow=1;strokeWidth=6;fontFamily=Tahoma;fontSize=26;fontColor=#000000;endArrow=classic;endFill=1;exitPerimeter=0;" edge="1" parent="1" source="4QAoWMW5s6YIsWgxjIas-43" target="4QAoWMW5s6YIsWgxjIas-32">
          <mxGeometry relative="1" as="geometry" />
        </mxCell>
        <mxCell id="4QAoWMW5s6YIsWgxjIas-45" value="" style="rounded=0;whiteSpace=wrap;html=1;dashed=1;labelBackgroundColor=none;labelBorderColor=none;strokeWidth=0;fontFamily=Courier New;fontSize=27;fontColor=#ffffff;fillColor=#1ba1e2;strokeColor=#006EAF;" vertex="1" parent="1">
          <mxGeometry x="1403.74" y="600" width="370" height="70" as="geometry" />
        </mxCell>
        <mxCell id="4QAoWMW5s6YIsWgxjIas-44" value="&lt;span style=&quot;&quot;&gt;&lt;font style=&quot;font-size: 36px;&quot; color=&quot;#ffffff&quot;&gt;File System&lt;/font&gt;&lt;/span&gt;" style="text;html=1;align=center;verticalAlign=middle;whiteSpace=wrap;rounded=0;dashed=1;labelBackgroundColor=none;labelBorderColor=none;strokeWidth=0;fontFamily=Courier New;fontSize=27;fontStyle=1" vertex="1" parent="1">
          <mxGeometry x="1413.74" y="620" width="380" height="30" as="geometry" />
        </mxCell>
        <mxCell id="4QAoWMW5s6YIsWgxjIas-47" value="Text" style="text;html=1;strokeColor=none;fillColor=none;align=center;verticalAlign=middle;whiteSpace=wrap;rounded=0;labelBackgroundColor=none;labelBorderColor=none;strokeWidth=1;fontFamily=Courier New;fontSize=27;fontColor=#FFFFFF;" vertex="1" parent="1">
          <mxGeometry x="850" y="460" width="60" height="30" as="geometry" />
        </mxCell>
        <mxCell id="4QAoWMW5s6YIsWgxjIas-49" value="&lt;font style=&quot;font-size: 36px;&quot;&gt;DATABASE&lt;/font&gt;" style="text;html=1;strokeColor=none;fillColor=none;align=center;verticalAlign=middle;whiteSpace=wrap;rounded=0;labelBackgroundColor=none;labelBorderColor=none;strokeWidth=1;fontFamily=Courier New;fontSize=36;fontColor=#000000;fontStyle=1" vertex="1" parent="1">
          <mxGeometry x="1031.88" y="630" width="187.5" height="30" as="geometry" />
        </mxCell>
        <mxCell id="4QAoWMW5s6YIsWgxjIas-52" value="&lt;font style=&quot;font-size: 25px;&quot;&gt;MongoDB, MySQL, PostgreeSQL&lt;/font&gt;" style="text;html=1;strokeColor=none;fillColor=none;align=center;verticalAlign=middle;whiteSpace=wrap;rounded=0;labelBackgroundColor=none;labelBorderColor=none;strokeWidth=1;fontFamily=Tahoma;fontSize=31;fontColor=#000000;" vertex="1" parent="1">
          <mxGeometry x="1000" y="700" width="251.25" height="110" as="geometry" />
        </mxCell>
        <mxCell id="4QAoWMW5s6YIsWgxjIas-53" value="&lt;font style=&quot;font-size: 24px;&quot;&gt;HTML, CSS, Images&lt;/font&gt;" style="text;html=1;strokeColor=none;fillColor=none;align=center;verticalAlign=middle;whiteSpace=wrap;rounded=0;labelBackgroundColor=none;labelBorderColor=none;strokeWidth=1;fontFamily=Tahoma;fontSize=30;fontColor=#000000;" vertex="1" parent="1">
          <mxGeometry x="1420.8" y="780" width="330" height="30" as="geometry" />
        </mxCell>
        <mxCell id="4QAoWMW5s6YIsWgxjIas-56" value="" style="aspect=fixed;perimeter=ellipsePerimeter;html=1;align=center;shadow=0;dashed=0;spacingTop=3;image;image=img/lib/active_directory/web_server.svg;rounded=1;labelBackgroundColor=none;labelBorderColor=none;strokeWidth=1;fontFamily=Tahoma;fontSize=24;fontColor=#000000;fillColor=none;" vertex="1" parent="1">
          <mxGeometry x="1534.74" y="145" width="128" height="160" as="geometry" />
        </mxCell>
        <mxCell id="4QAoWMW5s6YIsWgxjIas-57" value="Contains app logic" style="text;html=1;strokeColor=none;fillColor=none;align=center;verticalAlign=middle;whiteSpace=wrap;rounded=0;labelBackgroundColor=none;labelBorderColor=none;strokeWidth=1;fontFamily=Tahoma;fontSize=25;fontColor=#000000;" vertex="1" parent="1">
          <mxGeometry x="1408.94" y="320" width="353.74" height="30" as="geometry" />
        </mxCell>
        <mxCell id="4QAoWMW5s6YIsWgxjIas-61" value="" style="endArrow=classic;html=1;rounded=1;fontFamily=Tahoma;fontSize=30;fontColor=#000000;exitX=1.013;exitY=0.206;exitDx=0;exitDy=0;fontStyle=1;shadow=1;sketch=1;endFill=1;strokeWidth=6;exitPerimeter=0;" edge="1" parent="1" source="4QAoWMW5s6YIsWgxjIas-3">
          <mxGeometry width="50" height="50" relative="1" as="geometry">
            <mxPoint x="850" y="430" as="sourcePoint" />
            <mxPoint x="1380" y="142" as="targetPoint" />
          </mxGeometry>
        </mxCell>
        <mxCell id="4QAoWMW5s6YIsWgxjIas-64" value="&lt;b&gt;Request&lt;/b&gt;" style="text;html=1;strokeColor=none;fillColor=none;align=center;verticalAlign=middle;whiteSpace=wrap;rounded=0;labelBackgroundColor=none;labelBorderColor=none;strokeWidth=1;fontFamily=Tahoma;fontSize=30;fontColor=#000000;" vertex="1" parent="1">
          <mxGeometry x="950" y="100" width="210" height="30" as="geometry" />
        </mxCell>
        <mxCell id="4QAoWMW5s6YIsWgxjIas-67" value="" style="endArrow=classic;html=1;rounded=1;shadow=1;sketch=1;strokeWidth=6;fontFamily=Tahoma;fontSize=30;fontColor=#000000;exitX=-0.002;exitY=0.366;exitDx=0;exitDy=0;entryX=1.004;entryY=0.326;entryDx=0;entryDy=0;entryPerimeter=0;exitPerimeter=0;" edge="1" parent="1" source="4QAoWMW5s6YIsWgxjIas-32" target="4QAoWMW5s6YIsWgxjIas-3">
          <mxGeometry width="50" height="50" relative="1" as="geometry">
            <mxPoint x="850" y="430" as="sourcePoint" />
            <mxPoint x="760" y="270" as="targetPoint" />
          </mxGeometry>
        </mxCell>
        <mxCell id="4QAoWMW5s6YIsWgxjIas-69" value="&lt;br&gt;&lt;b&gt;Response&lt;br&gt;&lt;/b&gt;" style="text;html=1;strokeColor=none;fillColor=none;align=center;verticalAlign=middle;whiteSpace=wrap;rounded=0;labelBackgroundColor=none;labelBorderColor=none;strokeWidth=1;fontFamily=Tahoma;fontSize=30;fontColor=#000000;" vertex="1" parent="1">
          <mxGeometry x="887.5" y="140" width="335" height="130" as="geometry" />
        </mxCell>
        <mxCell id="4QAoWMW5s6YIsWgxjIas-70" style="edgeStyle=orthogonalEdgeStyle;rounded=1;sketch=1;orthogonalLoop=1;jettySize=auto;html=1;exitX=0.5;exitY=1;exitDx=0;exitDy=0;shadow=1;strokeWidth=6;fontFamily=Tahoma;fontSize=30;fontColor=#000000;endArrow=classic;endFill=1;" edge="1" parent="1" source="4QAoWMW5s6YIsWgxjIas-69" target="4QAoWMW5s6YIsWgxjIas-69">
          <mxGeometry relative="1" as="geometry" />
        </mxCell>
        <mxCell id="4QAoWMW5s6YIsWgxjIas-93" value="" style="rounded=1;whiteSpace=wrap;html=1;labelBackgroundColor=none;labelBorderColor=none;strokeWidth=1;fontFamily=Tahoma;fontSize=36;fontColor=#000000;fillColor=none;arcSize=4;dashed=1;" vertex="1" parent="1">
          <mxGeometry x="-3610" y="10" width="1590" height="960" as="geometry" />
        </mxCell>
        <mxCell id="4QAoWMW5s6YIsWgxjIas-97" value="" style="dashed=0;outlineConnect=0;html=1;align=center;labelPosition=center;verticalLabelPosition=bottom;verticalAlign=top;shape=mxgraph.weblogos.chrome;rounded=1;labelBackgroundColor=none;labelBorderColor=none;strokeWidth=1;fontFamily=Tahoma;fontSize=36;fontColor=#000000;fillColor=none;" vertex="1" parent="1">
          <mxGeometry x="527.68" y="130" width="91.21" height="90" as="geometry" />
        </mxCell>
        <mxCell id="4QAoWMW5s6YIsWgxjIas-98" value="" style="aspect=fixed;html=1;points=[];align=center;image;fontSize=12;image=img/lib/azure2/azure_stack/User_Subscriptions.svg;rounded=1;dashed=1;labelBackgroundColor=none;labelBorderColor=none;strokeWidth=1;fontFamily=Tahoma;fontColor=#000000;fillColor=none;" vertex="1" parent="1">
          <mxGeometry x="-100" y="138.09" width="210" height="203.82" as="geometry" />
        </mxCell>
        <mxCell id="4QAoWMW5s6YIsWgxjIas-108" value="&lt;b style=&quot;font-size: 32px;&quot;&gt;&lt;font style=&quot;font-size: 32px;&quot;&gt;Collect data&lt;/font&gt;&lt;/b&gt;" style="text;html=1;strokeColor=none;fillColor=none;align=center;verticalAlign=middle;whiteSpace=wrap;rounded=0;dashed=1;labelBackgroundColor=none;labelBorderColor=none;strokeWidth=1;fontFamily=Tahoma;fontSize=32;fontColor=#000000;" vertex="1" parent="1">
          <mxGeometry x="140" y="270" width="240" height="30" as="geometry" />
        </mxCell>
        <mxCell id="4QAoWMW5s6YIsWgxjIas-109" value="&lt;font style=&quot;font-size: 29px;&quot;&gt;Display Results&lt;/font&gt;" style="text;html=1;strokeColor=none;fillColor=none;align=center;verticalAlign=middle;whiteSpace=wrap;rounded=0;dashed=1;labelBackgroundColor=none;labelBorderColor=none;strokeWidth=1;fontFamily=Tahoma;fontSize=29;fontColor=#000000;fontStyle=1" vertex="1" parent="1">
          <mxGeometry x="135" y="180" width="290" height="30" as="geometry" />
        </mxCell>
        <mxCell id="4QAoWMW5s6YIsWgxjIas-111" value="&lt;font face=&quot;Times New Roman&quot; style=&quot;font-size: 33px;&quot;&gt;USER&lt;/font&gt;" style="text;html=1;strokeColor=none;fillColor=none;align=center;verticalAlign=middle;whiteSpace=wrap;rounded=0;dashed=1;labelBackgroundColor=none;labelBorderColor=none;strokeWidth=1;fontFamily=Tahoma;fontSize=33;fontColor=#000000;" vertex="1" parent="1">
          <mxGeometry x="-160" y="370" width="310" height="30" as="geometry" />
        </mxCell>
        <mxCell id="4QAoWMW5s6YIsWgxjIas-116" value="" style="rounded=1;whiteSpace=wrap;html=1;dashed=1;labelBackgroundColor=none;labelBorderColor=none;strokeWidth=1;fontFamily=Times New Roman;fontSize=33;fontColor=#000000;fillColor=none;arcSize=4;" vertex="1" parent="1">
          <mxGeometry x="370" y="10" width="1540" height="880" as="geometry" />
        </mxCell>
      </root>
    </mxGraphModel>
  </diagram>
</mxfile>
